<?xml version="1.0" encoding="UTF-8"?>
<svg id="_Слой_1" data-name="Слой 1" xmlns="http://www.w3.org/2000/svg" xmlns:xlink="http://www.w3.org/1999/xlink" viewBox="0 0 395.16 50.79">
  <defs>
    <style>
      .cls-1 {
        fill: url(#_Безымянный_градиент);
        stroke-width: 0px;
      }

      .cls-2 {
        fill: #fff;
        font-family: Gaoel, Gaoel;
        font-size: 44.91px;
        letter-spacing: .14em;
      }
    </style>
    <linearGradient id="_Безымянный_градиент" data-name="Безымянный градиент" x1="-560.71" y1="491.12" x2="-560.08" y2="491.12" gradientTransform="translate(66794.35 38749.46) scale(118.8 -78.85)" gradientUnits="userSpaceOnUse">
      <stop offset="0" stop-color="#00ff8f"/>
      <stop offset="1" stop-color="#00a1ff"/>
    </linearGradient>
  </defs>
  <g id="SvgjsG5324">
    <path class="cls-1" d="m250.35,35.63c-4.21,4.92-10.79,8.08-18.2,8.08-3.81,0-7.46-.81-10.78-2.42,6.57-4.27,10.38-11.11,10.38-18.47s-3.81-14.21-10.38-18.47c3.33-1.62,6.97-2.42,10.78-2.42,7.9,0,14.86,3.6,19.01,9.09.03,0,.06,0,.09-.02.55-.36,1.11-.69,1.69-1-4.53-6.03-12.15-9.99-20.78-9.99-4.5,0-8.92,1.08-12.77,3.17-3.78-2.03-8.2-3.17-12.69-3.17-13.87,0-25.14,10.22-25.14,22.81s11.27,22.81,25.14,22.81c4.48,0,8.89-1.07,12.73-3.14,3.84,2.07,8.25,3.14,12.73,3.14,8.05,0,15.22-3.45,19.82-8.8-.5-.35-.97-.73-1.4-1.13-.07-.02-.15-.04-.23-.05Zm-28,2.45l-12.89-11.69c-.22-1.17-.34-2.37-.34-3.58,0-.28,0-.56.02-.84l15.38,14.01c-.66.75-1.39,1.45-2.16,2.11Zm3.56-3.83l-16.45-14.98c.22-1.13.53-2.24.94-3.31l17.17,15.58c-.48.94-1.03,1.85-1.65,2.71Zm2.58-4.86l-17.13-15.56c.47-.9,1.02-1.77,1.63-2.6l16.39,14.87c-.2,1.13-.49,2.23-.88,3.29Zm1.15-6.58c0,.18,0,.36,0,.55l-15.26-13.84c.68-.75,1.42-1.46,2.22-2.14l12.64,11.47c.27,1.29.41,2.61.41,3.97Zm-10.25-17.42c3.84,2.29,6.73,5.5,8.45,9.2l-9.44-8.56c.32-.22.66-.43.99-.64Zm-12.7,38.32c-12.73,0-23.03-9.34-23.03-20.9S193.96,1.91,206.69,1.91c3.81,0,7.46.81,10.78,2.42-6.57,4.27-10.38,11.11-10.38,18.47s3.9,14.2,10.38,18.47c-3.33,1.62-7.06,2.42-10.78,2.42Zm12.73-3.5c-3.97-2.42-6.95-5.79-8.65-9.64l9.8,8.89c-.37.26-.76.51-1.15.75Z"/>
  </g>
  <text class="cls-2" transform="translate(0 39.38) scale(1.1 1)"><tspan x="0" y="0" xml:space="preserve">NEUR     HAR</tspan></text>
</svg>