<?xml version="1.0" encoding="UTF-8"?>
<svg id="_Слой_1" data-name="Слой 1" xmlns="http://www.w3.org/2000/svg" xmlns:xlink="http://www.w3.org/1999/xlink" viewBox="0 0 382.75 45.62">
  <defs>
    <style>
      .cls-1 {
        fill: url(#_Безымянный_градиент);
      }

      .cls-1, .cls-2 {
        stroke-width: 0px;
      }

      .cls-2 {
        fill: #fff;
      }
    </style>
    <linearGradient id="_Безымянный_градиент" data-name="Безымянный градиент" x1="-564.31" y1="491.12" x2="-563.67" y2="491.12" gradientTransform="translate(67217.52 38749.46) scale(118.8 -78.85)" gradientUnits="userSpaceOnUse">
      <stop offset="0" stop-color="#00ff8f"/>
      <stop offset="1" stop-color="#00a1ff"/>
    </linearGradient>
  </defs>
  <g id="SvgjsG5324">
    <path class="cls-1" d="m246.36,35.63c-4.21,4.92-10.79,8.08-18.2,8.08-3.81,0-7.46-.81-10.78-2.42,6.57-4.27,10.38-11.11,10.38-18.47s-3.81-14.21-10.38-18.47c3.33-1.62,6.97-2.42,10.78-2.42,7.9,0,14.86,3.6,19.01,9.09.03,0,.06,0,.09-.02.55-.36,1.11-.69,1.69-1-4.53-6.03-12.15-9.99-20.78-9.99-4.5,0-8.92,1.08-12.77,3.17-3.78-2.03-8.2-3.17-12.69-3.17-13.87,0-25.14,10.22-25.14,22.81s11.27,22.81,25.14,22.81c4.48,0,8.89-1.07,12.73-3.14,3.84,2.07,8.25,3.14,12.73,3.14,8.05,0,15.22-3.45,19.82-8.8-.5-.35-.97-.73-1.4-1.13-.07-.02-.15-.04-.23-.05Zm-28,2.45l-12.89-11.69c-.22-1.17-.34-2.37-.34-3.58,0-.28,0-.56.02-.84l15.38,14.01c-.66.75-1.39,1.45-2.16,2.11Zm3.56-3.83l-16.45-14.98c.22-1.13.53-2.24.94-3.31l17.17,15.58c-.48.94-1.03,1.85-1.65,2.71Zm2.58-4.86l-17.13-15.56c.47-.9,1.02-1.77,1.63-2.6l16.39,14.87c-.2,1.13-.49,2.23-.88,3.29Zm1.15-6.58c0,.18,0,.36,0,.55l-15.26-13.84c.68-.75,1.42-1.46,2.22-2.14l12.64,11.47c.27,1.29.41,2.61.41,3.97Zm-10.25-17.42c3.84,2.29,6.73,5.5,8.45,9.2l-9.44-8.56c.32-.22.66-.43.99-.64Zm-12.7,38.32c-12.73,0-23.03-9.34-23.03-20.9S189.97,1.91,202.7,1.91c3.81,0,7.46.81,10.78,2.42-6.57,4.27-10.38,11.11-10.38,18.47s3.9,14.2,10.38,18.47c-3.33,1.62-7.06,2.42-10.78,2.42Zm12.73-3.5c-3.97-2.42-6.95-5.79-8.65-9.64l9.8,8.89c-.37.26-.76.51-1.15.75Z"/>
  </g>
  <g>
    <path class="cls-2" d="m30.32,5.7c.46,0,.86.16,1.2.47s.52.68.52,1.1v30.09c0,.42-.17.79-.52,1.1s-.75.47-1.2.47h-4.33c-.59,0-1.07-.21-1.43-.63L.36,8.21c-.43-.54-.48-1.09-.15-1.66.29-.57.8-.85,1.52-.85h4.33c.62,0,1.08.21,1.38.63l17.42,21.42V7.27c0-.42.16-.79.49-1.1.33-.31.74-.47,1.23-.47h3.74ZM5.47,27.48c.46,0,.86.15,1.2.45.34.3.52.67.52,1.12v8.31c0,.42-.17.79-.52,1.1-.34.31-.75.47-1.2.47H1.74c-.46,0-.86-.16-1.21-.47s-.52-.68-.52-1.1v-8.31c0-.45.17-.82.52-1.12.34-.3.75-.45,1.21-.45h3.74Z"/>
    <path class="cls-2" d="m73.02,5.7c.5,0,.91.16,1.24.47.33.31.5.68.5,1.09v3.26c0,.45-.17.83-.5,1.14-.33.31-.74.47-1.24.47h-24.45c-.46,0-.87-.16-1.21-.47s-.52-.69-.52-1.14v-3.26c0-.42.17-.78.52-1.09s.75-.47,1.21-.47h24.45Zm-24.45,19.9c-.46,0-.87-.16-1.21-.47s-.52-.68-.52-1.1v-3.37c0-.42.17-.79.52-1.1s.75-.47,1.21-.47h22.22c.49,0,.92.16,1.26.47.35.31.52.68.52,1.1v3.37c0,.42-.17.79-.52,1.1-.35.31-.77.47-1.26.47h-22.22Zm24.45,7.01c.5,0,.91.16,1.24.47.33.31.5.69.5,1.14v3.26c0,.42-.17.78-.5,1.09-.33.31-.74.47-1.24.47h-24.45c-.46,0-.87-.16-1.21-.47s-.52-.68-.52-1.09v-3.26c0-.45.17-.82.52-1.14s.75-.47,1.21-.47h24.45Z"/>
    <path class="cls-2" d="m100.24,32.78c.4.12.71.32.94.61.23.28.35.61.35.96v3.46c0,.48-.21.88-.64,1.21-.33.24-.69.36-1.09.36-.17,0-.28-.01-.35-.04-3.07-.54-5.71-1.83-7.92-3.86-2.97-2.72-4.45-6.35-4.45-10.87V7.32c0-.45.17-.83.52-1.14s.75-.47,1.21-.47h3.81c.49,0,.92.16,1.26.47.35.31.52.7.52,1.14v17.38c0,2.84.89,5.01,2.67,6.51.92.78,1.98,1.3,3.17,1.57Zm17.08-27.08c.5,0,.92.16,1.26.47.35.31.52.7.52,1.14v17.29c0,4.52-1.48,8.14-4.45,10.87-2.21,2.04-4.85,3.32-7.92,3.86-.07.03-.18.04-.35.04-.4,0-.76-.12-1.09-.36-.43-.3-.64-.72-.64-1.26v-3.46c0-.33.12-.64.35-.92.23-.28.54-.49.94-.61,1.25-.33,2.31-.85,3.17-1.57,1.78-1.44,2.67-3.61,2.67-6.51V7.32c0-.45.17-.83.52-1.14.35-.31.77-.47,1.26-.47h3.76Z"/>
    <path class="cls-2" d="m164.39,36.51c.36.54.38,1.08.05,1.62-.33.54-.83.81-1.48.81h-4.5c-.63,0-1.11-.24-1.44-.72l-7.55-10.82h-8.84v9.97c0,.42-.17.79-.52,1.1-.34.31-.75.47-1.2.47h-3.74c-.46,0-.86-.16-1.21-.47-.34-.32-.52-.68-.52-1.1v-14.81c0-.42.17-.79.52-1.1s.75-.47,1.21-.47h15.24c2.9,0,4.83-.74,5.79-2.22.33-.47.49-1.16.49-2.04,0-1.39-.51-2.49-1.53-3.29-1.06-.86-2.57-1.29-4.55-1.29h-15.44c-.46,0-.87-.16-1.21-.47s-.52-.69-.52-1.11v-3.26c0-.42.17-.79.52-1.11.35-.32.75-.47,1.21-.47h15.86c3.82,0,6.9.99,9.24,2.96,2.4,1.98,3.61,4.66,3.61,8.04,0,4.43-2.05,7.47-6.14,9.12-.13.06-.26.11-.39.16-.13.04-.28.1-.44.16l7.47,10.38Z"/>
    <path class="cls-2" d="m291.3,5.7c.46,0,.86.16,1.2.47.34.31.52.68.52,1.1v30.18c0,.42-.17.79-.52,1.1-.34.31-.75.47-1.2.47h-3.74c-.49,0-.9-.16-1.23-.47-.33-.31-.49-.68-.49-1.1v-11.86h-15.94v11.86c0,.42-.16.79-.49,1.1-.33.31-.74.47-1.23.47h-3.74c-.46,0-.86-.16-1.21-.47s-.52-.68-.52-1.1v-16.8c0-.42.17-.79.52-1.1s.75-.47,1.21-.47h21.38V7.27c0-.42.16-.79.49-1.1.33-.31.74-.47,1.23-.47h3.74Zm-26.85,11.5c-.46,0-.86-.16-1.21-.47s-.52-.68-.52-1.1V7.27c0-.42.17-.79.52-1.1s.75-.47,1.21-.47h3.74c.49,0,.9.16,1.23.47.33.31.49.68.49,1.1v8.35c0,.42-.16.79-.49,1.1-.33.31-.74.47-1.23.47h-3.74Z"/>
    <path class="cls-2" d="m340.24,38.3c-.36.48-.84.72-1.44.72h-32.96c-.63,0-1.11-.24-1.44-.71-.36-.48-.41-.97-.15-1.47l1.53-3.26c.13-.3.34-.53.62-.71.28-.18.6-.27.96-.27h23.06l-1.48-3.24-6.63-14.4-6.63,14.4c-.13.3-.34.53-.62.7-.28.17-.6.25-.97.25h-4.16c-.63,0-1.12-.24-1.48-.72-.33-.45-.38-.95-.15-1.49l10.05-21.41c.13-.33.34-.58.62-.74.28-.16.6-.25.96-.25h4.75c.76,0,1.29.33,1.58.99l14.11,30.14c.23.48.18.97-.15,1.48Z"/>
    <path class="cls-2" d="m382.46,36.51c.36.54.38,1.08.05,1.62-.33.54-.83.81-1.48.81h-4.5c-.63,0-1.11-.24-1.44-.72l-7.55-10.82h-8.84v9.97c0,.42-.17.79-.52,1.1-.34.31-.75.47-1.2.47h-3.74c-.46,0-.86-.16-1.21-.47-.34-.32-.52-.68-.52-1.1v-14.81c0-.42.17-.79.52-1.1s.75-.47,1.21-.47h15.24c2.9,0,4.83-.74,5.79-2.22.33-.47.49-1.16.49-2.04,0-1.39-.51-2.49-1.53-3.29-1.06-.86-2.57-1.29-4.55-1.29h-15.44c-.46,0-.87-.16-1.21-.47s-.52-.69-.52-1.11v-3.26c0-.42.17-.79.52-1.11.35-.32.75-.47,1.21-.47h15.86c3.82,0,6.9.99,9.24,2.96,2.4,1.98,3.61,4.66,3.61,8.04,0,4.43-2.05,7.47-6.14,9.12-.13.06-.26.11-.39.16-.13.04-.28.1-.44.16l7.47,10.38Z"/>
  </g>
</svg>