<?xml version="1.0" encoding="UTF-8"?>
<svg id="_Слой_1" data-name="Слой 1" xmlns="http://www.w3.org/2000/svg" xmlns:xlink="http://www.w3.org/1999/xlink" viewBox="0 0 232.46 37.4">
  <defs>
    <style>
      .cls-1 {
        fill: url(#_Безымянный_градиент_3);
      }

      .cls-1, .cls-2 {
        stroke-width: 0px;
      }
    </style>
    <linearGradient id="_Безымянный_градиент_3" data-name="Безымянный градиент 3" x1="0" y1="18.5" x2="32.37" y2="18.5" gradientUnits="userSpaceOnUse">
      <stop offset="0" stop-color="#00ff8f"/>
      <stop offset="1" stop-color="#00a1ff"/>
    </linearGradient>
  </defs>
  <path class="cls-1" d="m30.63,0c.46,0,.87.17,1.22.52s.52.76.52,1.23v33.5c0,.47-.17.88-.52,1.22-.35.35-.75.53-1.22.53h-4.37c-.6,0-1.08-.23-1.44-.7L.37,2.8C-.07,2.2-.12,1.58.22.95c.3-.63.81-.95,1.54-.95h4.37c.63,0,1.09.23,1.39.7l17.6,23.85V1.75c0-.47.17-.88.5-1.23.33-.35.75-.52,1.24-.52h3.77ZM5.53,24.25c.46,0,.87.17,1.22.5s.52.75.52,1.25v9.25c0,.47-.17.88-.52,1.22-.35.35-.75.53-1.22.53H1.76c-.46,0-.87-.17-1.22-.53-.35-.35-.52-.76-.52-1.22v-9.25c0-.5.17-.92.52-1.25s.75-.5,1.22-.5h3.77Z"/>
  <g>
    <path class="cls-2" d="m41.22,37c-.27,0-.49-.09-.68-.28-.19-.19-.28-.41-.28-.68V10c0-.29.09-.53.28-.72.19-.19.41-.28.68-.28h17.6c.29,0,.53.09.72.28.19.19.28.43.28.72v2.64c0,.27-.09.49-.28.68-.19.19-.43.28-.72.28h-13.16v7.08h12.28c.29,0,.53.09.72.26.19.17.28.41.28.7v2.48c0,.29-.09.53-.28.7-.19.17-.43.26-.72.26h-12.28v7.32h13.48c.29,0,.53.09.72.28s.28.43.28.72v2.64c0,.27-.09.49-.28.68s-.43.28-.72.28h-17.92Z"/>
    <path class="cls-2" d="m67.1,37c-.27,0-.49-.09-.68-.28-.19-.19-.28-.43-.28-.72V10c0-.29.09-.53.28-.72.19-.19.43-.28.72-.28h3.6c.29,0,.53.09.7.28.17.19.26.43.26.72v18.36l13.16-18.72c.11-.13.25-.27.44-.42.19-.15.43-.22.72-.22h3.32c.27,0,.49.09.68.28.19.19.28.43.28.72v26.04c0,.27-.09.49-.28.68s-.41.28-.68.28h-3.6c-.29,0-.53-.09-.72-.28s-.28-.41-.28-.68v-18l-13.12,18.32c-.08.11-.21.24-.4.4-.19.16-.44.24-.76.24h-3.36Zm11.16-29.6c-1.65,0-2.97-.25-3.94-.76-.97-.51-1.67-1.17-2.1-1.98-.43-.81-.64-1.69-.64-2.62,0-.21.07-.39.2-.54.13-.15.32-.22.56-.22h2.32c.24,0,.43.07.56.22.13.15.2.33.2.54,0,.37.07.73.22,1.08.15.35.43.63.84.86.41.23,1.01.34,1.78.34s1.36-.11,1.76-.34c.4-.23.67-.51.82-.86.15-.35.22-.71.22-1.08,0-.21.07-.39.2-.54.13-.15.32-.22.56-.22h2.32c.24,0,.43.07.56.22.13.15.2.33.2.54,0,.93-.21,1.81-.64,2.62-.43.81-1.12,1.47-2.08,1.98-.96.51-2.27.76-3.92.76Z"/>
    <path class="cls-2" d="m98.5,37c-.27,0-.49-.09-.68-.28-.19-.19-.28-.41-.28-.68V10c0-.29.09-.53.28-.72.19-.19.41-.28.68-.28h10.72c2.08,0,3.89.33,5.44.98,1.55.65,2.75,1.64,3.6,2.96s1.28,2.97,1.28,4.94-.43,3.65-1.28,4.94c-.85,1.29-2.05,2.26-3.6,2.9-1.55.64-3.36.96-5.44.96h-5.96v9.36c0,.27-.09.49-.26.68-.17.19-.41.28-.7.28h-3.8Zm4.68-14.76h5.84c1.55,0,2.73-.37,3.56-1.1.83-.73,1.24-1.82,1.24-3.26,0-1.33-.39-2.41-1.16-3.22-.77-.81-1.99-1.22-3.64-1.22h-5.84v8.8Z"/>
    <path class="cls-2" d="m135.66,37.4c-2.37,0-4.41-.39-6.12-1.18-1.71-.79-3.04-2-4-3.64-.96-1.64-1.48-3.69-1.56-6.14-.03-1.15-.04-2.28-.04-3.4s.01-2.27.04-3.44c.08-2.43.61-4.45,1.6-6.08.99-1.63,2.34-2.85,4.06-3.68,1.72-.83,3.73-1.24,6.02-1.24s4.31.41,6.04,1.24c1.73.83,3.09,2.05,4.08,3.68.99,1.63,1.52,3.65,1.6,6.08.05,1.17.08,2.32.08,3.44s-.03,2.25-.08,3.4c-.08,2.45-.6,4.5-1.56,6.14-.96,1.64-2.3,2.85-4.02,3.64-1.72.79-3.77,1.18-6.14,1.18Zm0-4.6c1.73,0,3.15-.51,4.24-1.54,1.09-1.03,1.68-2.7,1.76-5.02.05-1.17.08-2.26.08-3.26s-.03-2.07-.08-3.22c-.05-1.55-.34-2.81-.86-3.78-.52-.97-1.22-1.68-2.1-2.12s-1.89-.66-3.04-.66-2.12.22-3,.66-1.58,1.15-2.1,2.12c-.52.97-.81,2.23-.86,3.78-.03,1.15-.04,2.22-.04,3.22s.01,2.09.04,3.26c.08,2.32.67,3.99,1.76,5.02,1.09,1.03,2.49,1.54,4.2,1.54Z"/>
    <path class="cls-2" d="m169.78,37c-.29,0-.53-.09-.7-.28-.17-.19-.26-.41-.26-.68v-9.44c-.43.4-.99.73-1.7,1-.71.27-1.48.47-2.32.6-.84.13-1.66.2-2.46.2-3.28,0-5.72-.79-7.32-2.38-1.6-1.59-2.4-3.94-2.4-7.06v-9c0-.27.09-.49.28-.68.19-.19.41-.28.68-.28h3.6c.29,0,.53.09.72.28.19.19.28.41.28.68v8.72c0,1.57.4,2.73,1.2,3.48.8.75,2.15,1.12,4.04,1.12.53,0,1.11-.05,1.72-.14s1.2-.27,1.76-.52c.56-.25,1.02-.59,1.38-1.02.36-.43.54-.96.54-1.6v-10.04c0-.27.09-.49.26-.68.17-.19.41-.28.7-.28h3.6c.29,0,.53.09.72.28.19.19.28.41.28.68v26.08c0,.27-.09.49-.28.68s-.43.28-.72.28h-3.6Z"/>
    <path class="cls-2" d="m180.02,37c-.21,0-.41-.08-.58-.24-.17-.16-.26-.36-.26-.6,0-.11.03-.23.08-.36l9.64-25.8c.08-.27.23-.5.46-.7.23-.2.54-.3.94-.3h4.36c.4,0,.71.1.92.3.21.2.37.43.48.7l9.64,25.8c.03.13.04.25.04.36,0,.24-.08.44-.24.6-.16.16-.35.24-.56.24h-3.48c-.37,0-.65-.09-.82-.26s-.29-.34-.34-.5l-1.88-4.88h-11.88l-1.88,4.88c-.05.16-.17.33-.34.5s-.45.26-.82.26h-3.48Zm7.92-10.24h9.08l-4.56-12.36-4.52,12.36Z"/>
    <path class="cls-2" d="m211.42,37c-.27,0-.49-.09-.68-.28-.19-.19-.28-.41-.28-.68V10c0-.29.09-.53.28-.72.19-.19.41-.28.68-.28h10.72c2.08,0,3.89.33,5.44.98,1.55.65,2.75,1.64,3.6,2.96s1.28,2.97,1.28,4.94-.43,3.65-1.28,4.94c-.85,1.29-2.05,2.26-3.6,2.9-1.55.64-3.36.96-5.44.96h-5.96v9.36c0,.27-.09.49-.26.68-.17.19-.41.28-.7.28h-3.8Zm4.68-14.76h5.84c1.55,0,2.73-.37,3.56-1.1.83-.73,1.24-1.82,1.24-3.26,0-1.33-.39-2.41-1.16-3.22-.77-.81-1.99-1.22-3.64-1.22h-5.84v8.8Z"/>
  </g>
</svg>